<svg xmlns="http://www.w3.org/2000/svg" width="340" height="62.59" viewBox="0 0 340 62.59"><defs><style>.cls-1,.cls-2{fill:#0c0c0c;}.cls-2{fill-opacity:0;}</style></defs><g id="Layer_2" data-name="Layer 2"><g id="Layer_1-2" data-name="Layer 1"><path class="cls-1" d="M0,2.54V32.2H2.29V7.7l20,24.5h.9V2.54H20.94V27.07L1,2.54Z"/><path class="cls-1" d="M38.2,32.5c5.88,0,10.63-4.08,10.63-10.73S44.08,10.88,38.2,10.88,27.55,15.11,27.55,21.77,32.3,32.5,38.2,32.5Zm0-2a8.28,8.28,0,0,1-8.61-8.69c0-5.43,3.86-8.94,8.61-8.94s8.6,3.51,8.6,8.94A8.27,8.27,0,0,1,38.2,30.46Z"/><rect class="cls-2" x="53.73" width="51.72" height="43.12"/><path class="cls-1" d="M53.73,43.12,66.91,14l15,24.64,4.52-7.39,15.41,11.86Zm50.41,0L86.08,29.22,81.94,36,73.32,21.86,82,0l23.42,43.12Z"/><path class="cls-1" d="M129.42,11.26v4.58A9.51,9.51,0,0,0,120.85,11a10.4,10.4,0,0,0-10.63,10.72,10.47,10.47,0,0,0,10.63,10.81,9.81,9.81,0,0,0,8.57-4.79V32.2h2.07V11.26ZM120.85,13c11.66,0,11.66,17.51,0,17.51a8.4,8.4,0,0,1-8.55-8.77A8.38,8.38,0,0,1,120.85,13Z"/><path class="cls-1" d="M147,12.91a8.39,8.39,0,0,1,8.57,8.78c0,5.2-3.65,8.81-8.57,8.81-4.7,0-8.56-3-8.56-8.77S142.29,12.91,147,12.91ZM155.6,2.54v13.3c-1.69-3.4-5.08-4.91-8.69-4.91-5.84,0-10.51,3.9-10.51,10.8S141,32.54,146.87,32.54a9.88,9.88,0,0,0,8.73-5V32.2h2V2.54Z"/><path class="cls-1" d="M203.65,26.65a13.29,13.29,0,0,1-9.28,3.77c-8.57,0-13-6-13.06-13,0-7.11,4.41-13.21,13.06-13.21A13,13,0,0,1,203.6,8l1.58-1.35a15.31,15.31,0,0,0-10.81-4.45c-10.18,0-15.34,7.41-15.26,15.35s5.26,15,15.26,15a15.27,15.27,0,0,0,10.81-4.45Z"/><path class="cls-1" d="M228.62,11.26v4.58A9.51,9.51,0,0,0,220.05,11a10.4,10.4,0,0,0-10.63,10.72,10.47,10.47,0,0,0,10.63,10.81,9.82,9.82,0,0,0,8.57-4.79V32.2h2.07V11.26ZM220.05,13c11.66,0,11.66,17.51,0,17.51a8.4,8.4,0,0,1-8.55-8.77A8.38,8.38,0,0,1,220.05,13Z"/><path class="cls-1" d="M268.7,32.2V19.65a8.43,8.43,0,0,0-8.78-8.82A8.1,8.1,0,0,0,252.17,16c-1.23-3.73-4.58-5.18-7.76-5.18a7.38,7.38,0,0,0-6.82,3.91l0-3.48h-2V32.2h2.08V19.78c0-4,2.72-7,6.7-7a6.58,6.58,0,0,1,6.74,7V32.2h2.08V19.78c0-4,2.75-7,6.73-7a6.47,6.47,0,0,1,6.7,6.86V32.2Z"/><path class="cls-1" d="M284.81,30.59a8.44,8.44,0,0,1-8.48-8.82c0-5.13,3.61-8.82,8.48-8.82s8.57,2.89,8.57,8.78S289.56,30.59,284.81,30.59Zm-8.64,10.34V27.36a9.42,9.42,0,0,0,8.64,5.22c5.89,0,10.65-3.81,10.65-10.85C295.46,15,291,11.17,285.28,11a10,10,0,0,0-9.07,5.25v-5h-2V40.93Z"/><path class="cls-1" d="M311,32.5c3.34,0,7-1.36,9-4l-1.48-1.18c-1.57,2.08-4.8,3.18-7.55,3.18a8.24,8.24,0,0,1-8.52-7.75h18.86c.8-8.19-4.45-11.78-10.34-11.78a10.52,10.52,0,0,0-10.64,10.8C300.35,28.38,305.1,32.5,311,32.5Zm-8.52-11.61c.47-5.14,4.19-8.06,8.52-8.06,5,0,8.43,2.88,8.48,8.06Z"/><path class="cls-1" d="M326.53,11.26V32.2h2.08V20a7,7,0,0,1,6.9-7,6.84,6.84,0,0,1,3.57,1l.92-1.69a8.23,8.23,0,0,0-4.49-1.23c-2.66,0-5.64,1.1-6.95,3.94l-.08-3.73Z"/><rect class="cls-1" x="6.89" y="56.3" width="53.85" height="1.38"/><rect class="cls-1" x="279.26" y="56.3" width="53.85" height="1.38"/><path class="cls-1" d="M64.87,61l.82-1a4.48,4.48,0,0,0,1.37,1,3.63,3.63,0,0,0,1.61.38h0a2.54,2.54,0,0,0,1.67-.49,1.59,1.59,0,0,0,.59-1.28h0a1.65,1.65,0,0,0-.14-.7,1.52,1.52,0,0,0-.37-.5,3.61,3.61,0,0,0-.58-.37l-.7-.34h0L67.59,57c-.25-.11-.51-.24-.78-.38a3.49,3.49,0,0,1-.7-.57,2.63,2.63,0,0,1-.51-.78,2.52,2.52,0,0,1-.21-1h0a2.57,2.57,0,0,1,.26-1.13,2.92,2.92,0,0,1,.7-.92,3.34,3.34,0,0,1,1.08-.6,4.21,4.21,0,0,1,1.36-.22h0a4.26,4.26,0,0,1,1.79.38,4.45,4.45,0,0,1,1.41,1h0l-.74.9a3.72,3.72,0,0,0-1.11-.76,3,3,0,0,0-1.35-.28h0a2.3,2.3,0,0,0-1.46.43,1.39,1.39,0,0,0-.55,1.16h0a1.38,1.38,0,0,0,.15.67,1.91,1.91,0,0,0,.43.47,3.38,3.38,0,0,0,.58.37c.2.1.41.2.63.29h0l1.55.65c.3.14.59.29.86.45a3.52,3.52,0,0,1,.71.6,2.43,2.43,0,0,1,.46.8,2.8,2.8,0,0,1,.18,1h0a2.73,2.73,0,0,1-.26,1.2,2.68,2.68,0,0,1-.73,1,3.35,3.35,0,0,1-1.16.66,4.53,4.53,0,0,1-1.52.24h0A5.19,5.19,0,0,1,64.87,61Zm11.5,1.4V52.73H73.11V51.59H81v1.14H77.75v9.66ZM83.65,58H86.9l-.51-1.66q-.3-.9-.57-1.8c-.17-.6-.35-1.21-.52-1.83h-.07l-.51,1.83c-.17.6-.36,1.2-.55,1.8h0Zm4.61,4.39-1-3.29H83.3l-1,3.29H80.86l3.67-10.8h1.54l3.67,10.8Zm4.37-9.7v4h1.82a3.18,3.18,0,0,0,1.94-.51,1.86,1.86,0,0,0,.67-1.57h0a1.63,1.63,0,0,0-.67-1.5,3.69,3.69,0,0,0-1.94-.43H92.63Zm6.12,9.7H97.19L94.6,57.83h-2v4.56H91.26V51.59h3.38a7.35,7.35,0,0,1,1.53.15,3,3,0,0,1,1.2.53,2.28,2.28,0,0,1,.78.93,3.21,3.21,0,0,1,.28,1.42h0a3,3,0,0,1-.66,2,3.27,3.27,0,0,1-1.77,1h0Zm4,0V52.73H99.49V51.59h7.91v1.14h-3.27v9.66Zm11.67,0V58.2l-3.24-6.61h1.46l1.41,3,.51,1.17c.16.38.34.78.52,1.18h.07c.18-.4.37-.8.55-1.18s.37-.78.54-1.17h0l1.38-3H119L115.8,58.2v4.19Zm9.85.2h0a4.36,4.36,0,0,1-1.86-.39,4.23,4.23,0,0,1-1.46-1.13,5.14,5.14,0,0,1-1-1.78,7.49,7.49,0,0,1-.34-2.35h0a7.32,7.32,0,0,1,.34-2.33,5,5,0,0,1,1-1.75,4,4,0,0,1,1.46-1.09,4.36,4.36,0,0,1,1.86-.39h0a4.49,4.49,0,0,1,1.88.39,4.24,4.24,0,0,1,1.46,1.1,5.17,5.17,0,0,1,1,1.75,7.6,7.6,0,0,1,.33,2.32h0a7.8,7.8,0,0,1-.33,2.35,5.32,5.32,0,0,1-1,1.78,4.32,4.32,0,0,1-1.46,1.13A4.49,4.49,0,0,1,124.26,62.59Zm0-1.2h0a2.79,2.79,0,0,0,2.32-1.22,4.48,4.48,0,0,0,.66-1.39,7.43,7.43,0,0,0,.22-1.84h0a7.12,7.12,0,0,0-.22-1.81,4.42,4.42,0,0,0-.66-1.38,3,3,0,0,0-1-.85,2.7,2.7,0,0,0-1.31-.32h0a2.76,2.76,0,0,0-1.31.32,3.11,3.11,0,0,0-1,.85,4.41,4.41,0,0,0-.65,1.38,6.31,6.31,0,0,0-.23,1.81h0a6.57,6.57,0,0,0,.23,1.84,4.47,4.47,0,0,0,.65,1.39,2.84,2.84,0,0,0,1,.9A2.76,2.76,0,0,0,124.26,61.39Zm6.9-3.46V51.59h1.38V58a6.37,6.37,0,0,0,.19,1.64,2.61,2.61,0,0,0,.54,1,1.8,1.8,0,0,0,.8.57,2.68,2.68,0,0,0,1,.18h0a2.79,2.79,0,0,0,1-.18,1.91,1.91,0,0,0,.8-.57,2.75,2.75,0,0,0,.55-1,6,6,0,0,0,.19-1.64h0V51.59h1.32v6.34a7,7,0,0,1-.3,2.19,3.69,3.69,0,0,1-.81,1.45,3.08,3.08,0,0,1-1.23.78,4.72,4.72,0,0,1-1.53.24h0a4.82,4.82,0,0,1-1.54-.24,3,3,0,0,1-1.24-.78,3.69,3.69,0,0,1-.81-1.45,7,7,0,0,1-.31-2.19Zm12.06-5.24v4H145a3.19,3.19,0,0,0,1.95-.51,1.86,1.86,0,0,0,.67-1.57h0a1.63,1.63,0,0,0-.67-1.5,3.71,3.71,0,0,0-1.95-.43h-1.8Zm6.1,9.7h-1.54l-2.6-4.56h-2v4.56h-1.38V51.59h3.38a7.35,7.35,0,0,1,1.53.15,3.06,3.06,0,0,1,1.2.53,2.28,2.28,0,0,1,.78.93,3.36,3.36,0,0,1,.28,1.42h0a3,3,0,0,1-.65,2,3.36,3.36,0,0,1-1.76,1h0ZM156.1,58h3.24l-.51-1.66c-.19-.6-.38-1.2-.55-1.8s-.36-1.21-.54-1.83h-.07q-.22.93-.51,1.83c-.17.6-.36,1.2-.55,1.8h0Zm4.62,4.39-1-3.29h-3.92l-1,3.29h-1.39L157,51.59h1.54l3.67,10.8Zm3,0V51.59h2.7A5,5,0,0,1,170.22,53a5.55,5.55,0,0,1,1.3,4h0a7.47,7.47,0,0,1-.33,2.3,4.47,4.47,0,0,1-1,1.71A4.38,4.38,0,0,1,168.64,62a5.82,5.82,0,0,1-2.16.37h-2.77Zm1.36-1.11h1.24a3.44,3.44,0,0,0,2.84-1.15,4.84,4.84,0,0,0,.95-3.19h0a4.64,4.64,0,0,0-.95-3.14,3.54,3.54,0,0,0-2.84-1.09h-1.24Zm10.58,1.11-3.46-10.8h1.46l1.74,5.83c.2.64.38,1.24.52,1.79s.33,1.14.54,1.78h.06c.2-.64.38-1.23.53-1.78s.32-1.15.51-1.79h0l1.73-5.83h1.4l-3.43,10.8Zm6.52,0V51.59h6.23v1.14h-4.87v3.41h4.11v1.15h-4.11v3.93h5v1.17Zm8.68,0V51.59h1.42l3.9,6.78,1.17,2.24h.07c0-.55-.08-1.12-.11-1.7s-.06-1.17-.06-1.74h0V51.59h1.3v10.8h-1.42l-3.92-6.8L192,53.37H192c0,.54.09,1.1.13,1.67s0,1.13,0,1.7h0v5.65Zm12.89,0V52.73h-3.26V51.59h7.91v1.14h-3.25v9.66Zm6.55-4.46V51.59h1.36V58a5.93,5.93,0,0,0,.2,1.64,2.74,2.74,0,0,0,.53,1,1.91,1.91,0,0,0,.8.57,2.76,2.76,0,0,0,1,.18h0a2.71,2.71,0,0,0,1-.18,2,2,0,0,0,.81-.57,2.61,2.61,0,0,0,.54-1,6,6,0,0,0,.19-1.64h0V51.59h1.33v6.34a7.31,7.31,0,0,1-.29,2.19,4,4,0,0,1-.83,1.45,3,3,0,0,1-1.23.78,4.63,4.63,0,0,1-1.53.24h0a4.82,4.82,0,0,1-1.54-.24,3,3,0,0,1-1.23-.78,4,4,0,0,1-.82-1.45,7.31,7.31,0,0,1-.29-2.19Zm12-5.24v4h1.82a3.18,3.18,0,0,0,1.94-.51,1.86,1.86,0,0,0,.68-1.57h0a1.64,1.64,0,0,0-.68-1.5,3.69,3.69,0,0,0-1.94-.43h-1.82Zm6.12,9.7h-1.56l-2.6-4.56h-2v4.56H221V51.59h3.37a7.35,7.35,0,0,1,1.53.15,3.12,3.12,0,0,1,1.2.53,2.57,2.57,0,0,1,.79.93,3.36,3.36,0,0,1,.27,1.42h0a3,3,0,0,1-.66,2,3.36,3.36,0,0,1-1.76,1h0Zm2.09,0V51.59h6.23v1.14h-4.86v3.41H236v1.15h-4.1v3.93h5v1.17Zm12,0V51.59H244l3.91,6.78L249,60.61h.07c0-.55-.06-1.12-.11-1.7s-.05-1.17-.05-1.74h0V51.59h1.3v10.8h-1.42l-3.92-6.8-1.17-2.22h-.06c0,.54.08,1.1.13,1.67s0,1.13,0,1.7h0v5.65Zm14.65.2h0a4.36,4.36,0,0,1-1.86-.39,4.14,4.14,0,0,1-1.46-1.13,5.31,5.31,0,0,1-1-1.78,7.8,7.8,0,0,1-.33-2.35h0a7.62,7.62,0,0,1,.33-2.33,5.16,5.16,0,0,1,1-1.75,3.92,3.92,0,0,1,1.46-1.09,4.36,4.36,0,0,1,1.86-.39h0a4.38,4.38,0,0,1,1.87.39,4.31,4.31,0,0,1,1.48,1.1,5.33,5.33,0,0,1,.95,1.75,7.6,7.6,0,0,1,.33,2.32h0a7.8,7.8,0,0,1-.33,2.35,5.49,5.49,0,0,1-.95,1.78,4.26,4.26,0,0,1-3.35,1.52Zm0-1.2h0a2.77,2.77,0,0,0,1.32-.32,2.65,2.65,0,0,0,1-.9,4.08,4.08,0,0,0,.66-1.39,7,7,0,0,0,.22-1.84h0a6.7,6.7,0,0,0-.22-1.81,4,4,0,0,0-.66-1.38,2.88,2.88,0,0,0-1-.85,2.77,2.77,0,0,0-1.32-.32h0a2.73,2.73,0,0,0-1.31.32,3.14,3.14,0,0,0-1,.85,4.4,4.4,0,0,0-.64,1.38,6.3,6.3,0,0,0-.24,1.81h0a6.56,6.56,0,0,0,.24,1.84,4.46,4.46,0,0,0,.64,1.39,2.86,2.86,0,0,0,1,.9A2.73,2.73,0,0,0,257.19,61.39Zm8,1L263,51.59h1.42l1.13,5.87c.1.6.2,1.18.31,1.75s.22,1.15.32,1.75h.05c.13-.6.26-1.18.39-1.75s.25-1.16.37-1.75h0l1.5-5.87h1.26l1.5,5.87c.13.58.26,1.16.4,1.74s.26,1.16.39,1.76h.06c.1-.6.21-1.18.31-1.75s.19-1.16.3-1.75h0l1.14-5.87h1.33l-2.25,10.8h-1.65l-1.63-6.5q-.15-.63-.27-1.23c-.09-.4-.17-.81-.25-1.24H269c-.09.43-.18.84-.28,1.24s-.18.81-.27,1.23h0l-1.6,6.5Z"/></g></g></svg>